<svg width="235" height="33" viewBox="0 0 235 33" fill="none" xmlns="http://www.w3.org/2000/svg">
<path d="M3.48 24C2.952 24 2.544 23.864 2.256 23.592C1.984 23.304 1.848 22.896 1.848 22.368V8.712C1.848 8.184 1.984 7.784 2.256 7.512C2.544 7.224 2.952 7.08 3.48 7.08H9.24C10.424 7.08 11.432 7.256 12.264 7.608C13.096 7.96 13.728 8.464 14.16 9.12C14.608 9.776 14.832 10.56 14.832 11.472C14.832 12.496 14.536 13.36 13.944 14.064C13.352 14.768 12.544 15.24 11.52 15.48V15.12C12.704 15.296 13.624 15.744 14.28 16.464C14.936 17.184 15.264 18.12 15.264 19.272C15.264 20.776 14.752 21.944 13.728 22.776C12.72 23.592 11.312 24 9.504 24H3.48ZM4.8 21.672H9.12C10.208 21.672 11.008 21.464 11.52 21.048C12.032 20.616 12.288 19.976 12.288 19.128C12.288 18.264 12.032 17.624 11.52 17.208C11.008 16.792 10.208 16.584 9.12 16.584H4.8V21.672ZM4.8 14.256H8.712C9.768 14.256 10.552 14.056 11.064 13.656C11.592 13.24 11.856 12.632 11.856 11.832C11.856 11.032 11.592 10.432 11.064 10.032C10.552 9.616 9.768 9.408 8.712 9.408H4.8V14.256ZM21.0594 28.512C20.7074 28.512 20.4194 28.416 20.1954 28.224C19.9714 28.048 19.8354 27.808 19.7874 27.504C19.7554 27.2 19.8114 26.88 19.9554 26.544L21.5874 22.92V24.168L17.2194 14.064C17.0754 13.712 17.0274 13.384 17.0754 13.08C17.1234 12.776 17.2674 12.536 17.5074 12.36C17.7634 12.168 18.1074 12.072 18.5394 12.072C18.9074 12.072 19.2034 12.16 19.4274 12.336C19.6514 12.496 19.8514 12.808 20.0274 13.272L23.2674 21.36H22.5474L25.8594 13.248C26.0354 12.8 26.2434 12.496 26.4834 12.336C26.7234 12.16 27.0434 12.072 27.4434 12.072C27.7954 12.072 28.0754 12.168 28.2834 12.36C28.4914 12.536 28.6194 12.776 28.6674 13.08C28.7154 13.368 28.6594 13.688 28.4994 14.04L22.6674 27.36C22.4594 27.808 22.2354 28.112 21.9954 28.272C21.7554 28.432 21.4434 28.512 21.0594 28.512ZM34.3459 24.24C33.4979 24.24 32.7379 24.08 32.0659 23.76C31.4099 23.424 30.8899 22.976 30.5059 22.416C30.1379 21.856 29.9539 21.224 29.9539 20.52C29.9539 19.656 30.1779 18.976 30.6259 18.48C31.0739 17.968 31.8019 17.6 32.8099 17.376C33.8179 17.152 35.1699 17.04 36.8659 17.04H38.0659V18.768H36.8899C35.8979 18.768 35.1059 18.816 34.5139 18.912C33.9219 19.008 33.4979 19.176 33.2419 19.416C33.0019 19.64 32.8819 19.96 32.8819 20.376C32.8819 20.904 33.0659 21.336 33.4339 21.672C33.8019 22.008 34.3139 22.176 34.9699 22.176C35.4979 22.176 35.9619 22.056 36.3619 21.816C36.7779 21.56 37.1059 21.216 37.3459 20.784C37.5859 20.352 37.7059 19.856 37.7059 19.296V16.536C37.7059 15.736 37.5299 15.16 37.1779 14.808C36.8259 14.456 36.2339 14.28 35.4019 14.28C34.9379 14.28 34.4339 14.336 33.8899 14.448C33.3619 14.56 32.8019 14.752 32.2099 15.024C31.9059 15.168 31.6339 15.208 31.3939 15.144C31.1699 15.08 30.9939 14.952 30.8659 14.76C30.7379 14.552 30.6739 14.328 30.6739 14.088C30.6739 13.848 30.7379 13.616 30.8659 13.392C30.9939 13.152 31.2099 12.976 31.5139 12.864C32.2499 12.56 32.9539 12.344 33.6259 12.216C34.3139 12.088 34.9379 12.024 35.4979 12.024C36.6499 12.024 37.5939 12.2 38.3299 12.552C39.0819 12.904 39.6419 13.44 40.0099 14.16C40.3779 14.864 40.5619 15.776 40.5619 16.896V22.656C40.5619 23.152 40.4419 23.536 40.2019 23.808C39.9619 24.064 39.6179 24.192 39.1699 24.192C38.7219 24.192 38.3699 24.064 38.1139 23.808C37.8739 23.536 37.7539 23.152 37.7539 22.656V21.504H37.9459C37.8339 22.064 37.6099 22.552 37.2739 22.968C36.9539 23.368 36.5459 23.68 36.0499 23.904C35.5539 24.128 34.9859 24.24 34.3459 24.24ZM45.0949 24.192C44.6149 24.192 44.2469 24.064 43.9909 23.808C43.7349 23.536 43.6069 23.152 43.6069 22.656V8.4C43.6069 7.904 43.7349 7.528 43.9909 7.272C44.2469 7.016 44.6149 6.888 45.0949 6.888C45.5749 6.888 45.9429 7.016 46.1989 7.272C46.4709 7.528 46.6069 7.904 46.6069 8.4V14.616H46.2709C46.6229 13.768 47.1669 13.128 47.9029 12.696C48.6549 12.248 49.5029 12.024 50.4469 12.024C51.3909 12.024 52.1669 12.2 52.7749 12.552C53.3829 12.904 53.8389 13.44 54.1429 14.16C54.4469 14.864 54.5989 15.76 54.5989 16.848V22.656C54.5989 23.152 54.4709 23.536 54.2149 23.808C53.9589 24.064 53.5909 24.192 53.1109 24.192C52.6309 24.192 52.2549 24.064 51.9829 23.808C51.7269 23.536 51.5989 23.152 51.5989 22.656V16.992C51.5989 16.08 51.4229 15.416 51.0709 15C50.7349 14.584 50.2069 14.376 49.4869 14.376C48.6069 14.376 47.9029 14.656 47.3749 15.216C46.8629 15.76 46.6069 16.488 46.6069 17.4V22.656C46.6069 23.68 46.1029 24.192 45.0949 24.192ZM63.4299 24.24C62.1019 24.24 60.9579 23.992 59.9979 23.496C59.0379 23 58.2939 22.296 57.7659 21.384C57.2539 20.472 56.9979 19.392 56.9979 18.144C56.9979 16.928 57.2459 15.864 57.7419 14.952C58.2539 14.04 58.9499 13.328 59.8299 12.816C60.7259 12.288 61.7419 12.024 62.8779 12.024C63.7099 12.024 64.4539 12.16 65.1099 12.432C65.7819 12.704 66.3499 13.096 66.8139 13.608C67.2939 14.12 67.6539 14.744 67.8939 15.48C68.1499 16.2 68.2779 17.016 68.2779 17.928C68.2779 18.216 68.1739 18.44 67.9659 18.6C67.7739 18.744 67.4939 18.816 67.1259 18.816H59.4219V17.088H66.1659L65.7819 17.448C65.7819 16.712 65.6699 16.096 65.4459 15.6C65.2379 15.104 64.9259 14.728 64.5099 14.472C64.1099 14.2 63.6059 14.064 62.9979 14.064C62.3259 14.064 61.7499 14.224 61.2699 14.544C60.8059 14.848 60.4459 15.288 60.1899 15.864C59.9499 16.424 59.8299 17.096 59.8299 17.88V18.048C59.8299 19.36 60.1339 20.344 60.7419 21C61.3659 21.64 62.2779 21.96 63.4779 21.96C63.8939 21.96 64.3579 21.912 64.8699 21.816C65.3979 21.704 65.8939 21.52 66.3579 21.264C66.6939 21.072 66.9899 20.992 67.2459 21.024C67.5019 21.04 67.7019 21.128 67.8459 21.288C68.0059 21.448 68.1019 21.648 68.1339 21.888C68.1659 22.112 68.1179 22.344 67.9899 22.584C67.8779 22.824 67.6779 23.032 67.3899 23.208C66.8299 23.56 66.1819 23.824 65.4459 24C64.7259 24.16 64.0539 24.24 63.4299 24.24Z" fill="#2563EB"/>
<path d="M72.0938 24.12C71.5498 24.12 71.1098 23.952 70.7738 23.616C70.4538 23.28 70.2938 22.848 70.2938 22.32C70.2938 21.808 70.4538 21.392 70.7738 21.072C71.1098 20.736 71.5498 20.568 72.0938 20.568C72.6538 20.568 73.0858 20.736 73.3898 21.072C73.7098 21.392 73.8698 21.808 73.8698 22.32C73.8698 22.848 73.7098 23.28 73.3898 23.616C73.0858 23.952 72.6538 24.12 72.0938 24.12Z" fill="#FDE047"/>
<path d="M78.0949 24.192C77.6149 24.192 77.2469 24.064 76.9909 23.808C76.7349 23.536 76.6069 23.152 76.6069 22.656V13.584C76.6069 13.088 76.7349 12.712 76.9909 12.456C77.2469 12.2 77.6069 12.072 78.0709 12.072C78.5349 12.072 78.8949 12.2 79.1509 12.456C79.4069 12.712 79.5349 13.088 79.5349 13.584V15.216L79.2709 14.616C79.6229 13.768 80.1669 13.128 80.9029 12.696C81.6549 12.248 82.5029 12.024 83.4469 12.024C84.3909 12.024 85.1669 12.2 85.7749 12.552C86.3829 12.904 86.8389 13.44 87.1429 14.16C87.4469 14.864 87.5989 15.76 87.5989 16.848V22.656C87.5989 23.152 87.4709 23.536 87.2149 23.808C86.9589 24.064 86.5909 24.192 86.1109 24.192C85.6309 24.192 85.2549 24.064 84.9829 23.808C84.7269 23.536 84.5989 23.152 84.5989 22.656V16.992C84.5989 16.08 84.4229 15.416 84.0709 15C83.7349 14.584 83.2069 14.376 82.4869 14.376C81.6069 14.376 80.9029 14.656 80.3749 15.216C79.8629 15.76 79.6069 16.488 79.6069 17.4V22.656C79.6069 23.68 79.1029 24.192 78.0949 24.192ZM96.4299 24.24C95.1019 24.24 93.9579 23.992 92.9979 23.496C92.0379 23 91.2939 22.296 90.7659 21.384C90.2539 20.472 89.9979 19.392 89.9979 18.144C89.9979 16.928 90.2459 15.864 90.7419 14.952C91.2539 14.04 91.9499 13.328 92.8299 12.816C93.7259 12.288 94.7419 12.024 95.8779 12.024C96.7099 12.024 97.4539 12.16 98.1099 12.432C98.7819 12.704 99.3499 13.096 99.8139 13.608C100.294 14.12 100.654 14.744 100.894 15.48C101.15 16.2 101.278 17.016 101.278 17.928C101.278 18.216 101.174 18.44 100.966 18.6C100.774 18.744 100.494 18.816 100.126 18.816H92.4219V17.088H99.1659L98.7819 17.448C98.7819 16.712 98.6699 16.096 98.4459 15.6C98.2379 15.104 97.9259 14.728 97.5099 14.472C97.1099 14.2 96.6059 14.064 95.9979 14.064C95.3259 14.064 94.7499 14.224 94.2699 14.544C93.8059 14.848 93.4459 15.288 93.1899 15.864C92.9499 16.424 92.8299 17.096 92.8299 17.88V18.048C92.8299 19.36 93.1339 20.344 93.7419 21C94.3659 21.64 95.2779 21.96 96.4779 21.96C96.8939 21.96 97.3579 21.912 97.8699 21.816C98.3979 21.704 98.8939 21.52 99.3579 21.264C99.6939 21.072 99.9899 20.992 100.246 21.024C100.502 21.04 100.702 21.128 100.846 21.288C101.006 21.448 101.102 21.648 101.134 21.888C101.166 22.112 101.118 22.344 100.99 22.584C100.878 22.824 100.678 23.032 100.39 23.208C99.8299 23.56 99.1819 23.824 98.4459 24C97.7259 24.16 97.0539 24.24 96.4299 24.24ZM108.983 24.24C107.943 24.24 107.071 24.064 106.367 23.712C105.679 23.36 105.167 22.848 104.831 22.176C104.495 21.488 104.327 20.64 104.327 19.632V14.52H103.079C102.695 14.52 102.399 14.424 102.191 14.232C101.983 14.024 101.879 13.744 101.879 13.392C101.879 13.024 101.983 12.744 102.191 12.552C102.399 12.36 102.695 12.264 103.079 12.264H104.327V10.08C104.327 9.584 104.455 9.208 104.711 8.952C104.983 8.696 105.359 8.568 105.839 8.568C106.319 8.568 106.687 8.696 106.943 8.952C107.199 9.208 107.327 9.584 107.327 10.08V12.264H109.871C110.255 12.264 110.551 12.36 110.759 12.552C110.967 12.744 111.071 13.024 111.071 13.392C111.071 13.744 110.967 14.024 110.759 14.232C110.551 14.424 110.255 14.52 109.871 14.52H107.327V19.464C107.327 20.232 107.495 20.808 107.831 21.192C108.167 21.576 108.711 21.768 109.463 21.768C109.735 21.768 109.975 21.744 110.183 21.696C110.391 21.648 110.575 21.616 110.735 21.6C110.927 21.584 111.087 21.648 111.215 21.792C111.343 21.92 111.407 22.192 111.407 22.608C111.407 22.928 111.351 23.216 111.239 23.472C111.143 23.712 110.959 23.88 110.687 23.976C110.479 24.04 110.207 24.096 109.871 24.144C109.535 24.208 109.239 24.24 108.983 24.24Z" fill="#DC2626"/>
<path d="M121.157 24.192C120.661 24.192 120.277 24.056 120.005 23.784C119.749 23.496 119.621 23.104 119.621 22.608V8.64C119.621 8.128 119.757 7.744 120.029 7.488C120.301 7.216 120.685 7.08 121.181 7.08H126.965C128.821 7.08 130.253 7.544 131.261 8.472C132.269 9.4 132.773 10.696 132.773 12.36C132.773 14.024 132.269 15.328 131.261 16.272C130.253 17.2 128.821 17.664 126.965 17.664H122.693V22.608C122.693 23.104 122.565 23.496 122.309 23.784C122.053 24.056 121.669 24.192 121.157 24.192ZM122.693 15.24H126.485C127.573 15.24 128.397 15 128.957 14.52C129.517 14.024 129.797 13.304 129.797 12.36C129.797 11.416 129.517 10.704 128.957 10.224C128.397 9.744 127.573 9.504 126.485 9.504H122.693V15.24ZM136.291 24.192C135.795 24.192 135.411 24.064 135.139 23.808C134.883 23.536 134.755 23.152 134.755 22.656V13.584C134.755 13.088 134.883 12.712 135.139 12.456C135.395 12.2 135.755 12.072 136.219 12.072C136.683 12.072 137.043 12.2 137.299 12.456C137.555 12.712 137.683 13.088 137.683 13.584V15.096H137.443C137.667 14.136 138.107 13.408 138.763 12.912C139.419 12.416 140.291 12.12 141.379 12.024C141.715 11.992 141.979 12.08 142.171 12.288C142.379 12.48 142.499 12.784 142.531 13.2C142.563 13.6 142.467 13.928 142.243 14.184C142.035 14.424 141.715 14.568 141.283 14.616L140.755 14.664C139.779 14.76 139.043 15.064 138.547 15.576C138.051 16.072 137.803 16.776 137.803 17.688V22.656C137.803 23.152 137.675 23.536 137.419 23.808C137.163 24.064 136.787 24.192 136.291 24.192ZM149.318 24.24C148.102 24.24 147.046 23.992 146.15 23.496C145.254 23 144.558 22.296 144.062 21.384C143.566 20.456 143.318 19.368 143.318 18.12C143.318 17.176 143.454 16.336 143.726 15.6C144.014 14.848 144.422 14.208 144.95 13.68C145.478 13.136 146.11 12.728 146.846 12.456C147.582 12.168 148.406 12.024 149.318 12.024C150.534 12.024 151.59 12.272 152.486 12.768C153.382 13.264 154.078 13.968 154.574 14.88C155.07 15.792 155.318 16.872 155.318 18.12C155.318 19.064 155.174 19.912 154.886 20.664C154.614 21.416 154.214 22.064 153.686 22.608C153.158 23.136 152.526 23.544 151.79 23.832C151.054 24.104 150.23 24.24 149.318 24.24ZM149.318 21.96C149.91 21.96 150.43 21.816 150.878 21.528C151.326 21.24 151.67 20.816 151.91 20.256C152.166 19.68 152.294 18.968 152.294 18.12C152.294 16.84 152.022 15.888 151.478 15.264C150.934 14.624 150.214 14.304 149.318 14.304C148.726 14.304 148.206 14.448 147.758 14.736C147.31 15.008 146.958 15.432 146.702 16.008C146.462 16.568 146.342 17.272 146.342 18.12C146.342 19.384 146.614 20.344 147.158 21C147.702 21.64 148.422 21.96 149.318 21.96ZM159.282 28.512C158.802 28.512 158.434 28.384 158.178 28.128C157.922 27.872 157.794 27.496 157.794 27V13.584C157.794 13.088 157.922 12.712 158.178 12.456C158.434 12.2 158.794 12.072 159.258 12.072C159.738 12.072 160.106 12.2 160.362 12.456C160.618 12.712 160.746 13.088 160.746 13.584V15.456L160.482 14.736C160.722 13.92 161.21 13.264 161.946 12.768C162.698 12.272 163.57 12.024 164.562 12.024C165.586 12.024 166.482 12.272 167.25 12.768C168.034 13.264 168.642 13.968 169.074 14.88C169.506 15.776 169.722 16.856 169.722 18.12C169.722 19.368 169.506 20.456 169.074 21.384C168.642 22.296 168.042 23 167.274 23.496C166.506 23.992 165.602 24.24 164.562 24.24C163.586 24.24 162.73 24 161.994 23.52C161.258 23.024 160.762 22.384 160.506 21.6H160.794V27C160.794 27.496 160.658 27.872 160.386 28.128C160.13 28.384 159.762 28.512 159.282 28.512ZM163.722 21.96C164.314 21.96 164.834 21.816 165.282 21.528C165.73 21.24 166.074 20.816 166.314 20.256C166.57 19.68 166.698 18.968 166.698 18.12C166.698 16.84 166.426 15.888 165.882 15.264C165.338 14.624 164.618 14.304 163.722 14.304C163.13 14.304 162.61 14.448 162.162 14.736C161.714 15.008 161.362 15.432 161.106 16.008C160.866 16.568 160.746 17.272 160.746 18.12C160.746 19.384 161.018 20.344 161.562 21C162.106 21.64 162.826 21.96 163.722 21.96ZM177.969 24.24C176.641 24.24 175.497 23.992 174.537 23.496C173.577 23 172.833 22.296 172.305 21.384C171.793 20.472 171.537 19.392 171.537 18.144C171.537 16.928 171.785 15.864 172.281 14.952C172.793 14.04 173.489 13.328 174.369 12.816C175.265 12.288 176.281 12.024 177.417 12.024C178.249 12.024 178.993 12.16 179.649 12.432C180.321 12.704 180.889 13.096 181.353 13.608C181.833 14.12 182.193 14.744 182.433 15.48C182.689 16.2 182.817 17.016 182.817 17.928C182.817 18.216 182.713 18.44 182.505 18.6C182.313 18.744 182.033 18.816 181.665 18.816H173.961V17.088H180.705L180.321 17.448C180.321 16.712 180.209 16.096 179.985 15.6C179.777 15.104 179.465 14.728 179.049 14.472C178.649 14.2 178.145 14.064 177.537 14.064C176.865 14.064 176.289 14.224 175.809 14.544C175.345 14.848 174.985 15.288 174.729 15.864C174.489 16.424 174.369 17.096 174.369 17.88V18.048C174.369 19.36 174.673 20.344 175.281 21C175.905 21.64 176.817 21.96 178.017 21.96C178.433 21.96 178.897 21.912 179.409 21.816C179.937 21.704 180.433 21.52 180.897 21.264C181.233 21.072 181.529 20.992 181.785 21.024C182.041 21.04 182.241 21.128 182.385 21.288C182.545 21.448 182.641 21.648 182.673 21.888C182.705 22.112 182.657 22.344 182.529 22.584C182.417 22.824 182.217 23.032 181.929 23.208C181.369 23.56 180.721 23.824 179.985 24C179.265 24.16 178.593 24.24 177.969 24.24ZM186.729 24.192C186.233 24.192 185.849 24.064 185.577 23.808C185.321 23.536 185.193 23.152 185.193 22.656V13.584C185.193 13.088 185.321 12.712 185.577 12.456C185.833 12.2 186.193 12.072 186.657 12.072C187.121 12.072 187.481 12.2 187.737 12.456C187.993 12.712 188.121 13.088 188.121 13.584V15.096H187.881C188.105 14.136 188.545 13.408 189.201 12.912C189.857 12.416 190.729 12.12 191.817 12.024C192.153 11.992 192.417 12.08 192.609 12.288C192.817 12.48 192.937 12.784 192.969 13.2C193.001 13.6 192.905 13.928 192.681 14.184C192.473 14.424 192.153 14.568 191.721 14.616L191.193 14.664C190.217 14.76 189.481 15.064 188.985 15.576C188.489 16.072 188.241 16.776 188.241 17.688V22.656C188.241 23.152 188.113 23.536 187.857 23.808C187.601 24.064 187.225 24.192 186.729 24.192ZM200.647 24.24C199.607 24.24 198.735 24.064 198.031 23.712C197.343 23.36 196.831 22.848 196.495 22.176C196.159 21.488 195.991 20.64 195.991 19.632V14.52H194.743C194.359 14.52 194.063 14.424 193.855 14.232C193.647 14.024 193.543 13.744 193.543 13.392C193.543 13.024 193.647 12.744 193.855 12.552C194.063 12.36 194.359 12.264 194.743 12.264H195.991V10.08C195.991 9.584 196.119 9.208 196.375 8.952C196.647 8.696 197.023 8.568 197.503 8.568C197.983 8.568 198.351 8.696 198.607 8.952C198.863 9.208 198.991 9.584 198.991 10.08V12.264H201.535C201.919 12.264 202.215 12.36 202.423 12.552C202.631 12.744 202.735 13.024 202.735 13.392C202.735 13.744 202.631 14.024 202.423 14.232C202.215 14.424 201.919 14.52 201.535 14.52H198.991V19.464C198.991 20.232 199.159 20.808 199.495 21.192C199.831 21.576 200.375 21.768 201.127 21.768C201.399 21.768 201.639 21.744 201.847 21.696C202.055 21.648 202.239 21.616 202.399 21.6C202.591 21.584 202.751 21.648 202.879 21.792C203.007 21.92 203.071 22.192 203.071 22.608C203.071 22.928 203.015 23.216 202.903 23.472C202.807 23.712 202.623 23.88 202.351 23.976C202.143 24.04 201.871 24.096 201.535 24.144C201.199 24.208 200.903 24.24 200.647 24.24ZM206.275 24.168C205.795 24.168 205.427 24.024 205.171 23.736C204.915 23.448 204.787 23.048 204.787 22.536V13.728C204.787 13.2 204.915 12.8 205.171 12.528C205.427 12.24 205.795 12.096 206.275 12.096C206.755 12.096 207.123 12.24 207.379 12.528C207.651 12.8 207.787 13.2 207.787 13.728V22.536C207.787 23.048 207.659 23.448 207.403 23.736C207.147 24.024 206.771 24.168 206.275 24.168ZM206.275 9.864C205.715 9.864 205.275 9.728 204.955 9.456C204.651 9.168 204.499 8.776 204.499 8.28C204.499 7.768 204.651 7.376 204.955 7.104C205.275 6.832 205.715 6.696 206.275 6.696C206.851 6.696 207.291 6.832 207.595 7.104C207.899 7.376 208.051 7.768 208.051 8.28C208.051 8.776 207.899 9.168 207.595 9.456C207.291 9.728 206.851 9.864 206.275 9.864ZM216.688 24.24C215.36 24.24 214.216 23.992 213.256 23.496C212.296 23 211.552 22.296 211.024 21.384C210.512 20.472 210.256 19.392 210.256 18.144C210.256 16.928 210.504 15.864 211 14.952C211.512 14.04 212.208 13.328 213.088 12.816C213.984 12.288 215 12.024 216.136 12.024C216.968 12.024 217.712 12.16 218.368 12.432C219.04 12.704 219.608 13.096 220.072 13.608C220.552 14.12 220.912 14.744 221.152 15.48C221.408 16.2 221.536 17.016 221.536 17.928C221.536 18.216 221.432 18.44 221.224 18.6C221.032 18.744 220.752 18.816 220.384 18.816H212.68V17.088H219.424L219.04 17.448C219.04 16.712 218.928 16.096 218.704 15.6C218.496 15.104 218.184 14.728 217.768 14.472C217.368 14.2 216.864 14.064 216.256 14.064C215.584 14.064 215.008 14.224 214.528 14.544C214.064 14.848 213.704 15.288 213.448 15.864C213.208 16.424 213.088 17.096 213.088 17.88V18.048C213.088 19.36 213.392 20.344 214 21C214.624 21.64 215.536 21.96 216.736 21.96C217.152 21.96 217.616 21.912 218.128 21.816C218.656 21.704 219.152 21.52 219.616 21.264C219.952 21.072 220.248 20.992 220.504 21.024C220.76 21.04 220.96 21.128 221.104 21.288C221.264 21.448 221.36 21.648 221.392 21.888C221.424 22.112 221.376 22.344 221.248 22.584C221.136 22.824 220.936 23.032 220.648 23.208C220.088 23.56 219.44 23.824 218.704 24C217.984 24.16 217.312 24.24 216.688 24.24ZM228.208 24.24C227.52 24.24 226.792 24.168 226.024 24.024C225.256 23.88 224.568 23.632 223.96 23.28C223.704 23.12 223.52 22.936 223.408 22.728C223.312 22.504 223.272 22.288 223.288 22.08C223.32 21.856 223.4 21.664 223.528 21.504C223.672 21.344 223.848 21.24 224.056 21.192C224.28 21.144 224.52 21.184 224.776 21.312C225.416 21.616 226.016 21.832 226.576 21.96C227.136 22.072 227.688 22.128 228.232 22.128C229 22.128 229.568 22 229.936 21.744C230.32 21.472 230.512 21.12 230.512 20.688C230.512 20.32 230.384 20.04 230.128 19.848C229.888 19.64 229.52 19.488 229.024 19.392L226.624 18.936C225.632 18.744 224.872 18.384 224.344 17.856C223.832 17.312 223.576 16.616 223.576 15.768C223.576 15 223.784 14.336 224.2 13.776C224.632 13.216 225.224 12.784 225.976 12.48C226.728 12.176 227.592 12.024 228.568 12.024C229.272 12.024 229.928 12.104 230.536 12.264C231.16 12.408 231.76 12.64 232.336 12.96C232.576 13.088 232.736 13.256 232.816 13.464C232.912 13.672 232.936 13.888 232.888 14.112C232.84 14.32 232.744 14.512 232.6 14.688C232.456 14.848 232.272 14.952 232.048 15C231.84 15.032 231.6 14.984 231.328 14.856C230.832 14.6 230.352 14.416 229.888 14.304C229.44 14.192 229.008 14.136 228.592 14.136C227.808 14.136 227.224 14.272 226.84 14.544C226.472 14.816 226.288 15.176 226.288 15.624C226.288 15.96 226.4 16.24 226.624 16.464C226.848 16.688 227.192 16.84 227.656 16.92L230.056 17.376C231.096 17.568 231.88 17.92 232.408 18.432C232.952 18.944 233.224 19.632 233.224 20.496C233.224 21.664 232.768 22.584 231.856 23.256C230.944 23.912 229.728 24.24 228.208 24.24Z" fill="#4B5563"/>
</svg>
